<svg width="128" height="128" viewBox="0 0 128 128" fill="none" xmlns="http://www.w3.org/2000/svg">
<mask id="mask0_vscw" style="mask-type:alpha" maskUnits="userSpaceOnUse" x="15" y="15" width="98" height="98">
<path fill-rule="evenodd" clip-rule="evenodd" d="M84.4937 112.331C86.0372 112.932 87.7971 112.894 89.355 112.144L109.532 102.435C111.652 101.415 113 99.2694 113 96.9154V31.085C113 28.731 111.652 26.5853 109.532 25.5652L89.355 15.8562C87.3105 14.8724 84.9177 15.1134 83.1232 16.418C82.867 16.6043 82.6227 16.8124 82.3936 17.0417L43.768 52.2806L26.9435 39.5094C25.3772 38.3205 23.1866 38.4179 21.7319 39.7411L16.3358 44.6498C14.5565 46.2682 14.5545 49.0674 16.3314 50.6886L30.9222 64.0001L16.3314 77.3115C14.5545 78.9326 14.5565 81.7319 16.3358 83.3504L21.7319 88.259C23.1866 89.5822 25.3772 89.6796 26.9435 88.4907L43.768 75.7195L82.3936 110.958C83.0046 111.57 83.7221 112.03 84.4937 112.331ZM88.5149 41.7529L59.2069 64.0001L88.5149 86.2471V41.7529Z" fill="white"/>
</mask>
<g mask="url(#mask0_vscw)">
<path d="M109.532 25.5804L89.3398 15.8582C87.0025 14.7328 84.2093 15.2075 82.375 17.0418L16.2726 77.3117C14.4946 78.9327 14.4967 81.732 16.277 83.3504L21.6765 88.2591C23.132 89.5822 25.324 89.6797 26.8911 88.4908L106.494 28.1026C109.164 26.0767 113 27.9814 113 31.3335V31.0991C113 28.7461 111.652 26.6012 109.532 25.5804Z" fill="#0065A9"/>
<path d="M109.532 102.42L89.3398 112.142C87.0025 113.268 84.2093 112.793 82.375 110.958L16.2726 50.6886C14.4946 49.0675 14.4967 46.2682 16.277 44.6498L21.6765 39.7411C23.132 38.4179 25.324 38.3205 26.8911 39.5094L106.494 99.8976C109.164 101.924 113 100.019 113 96.6668V96.9012C113 99.2541 111.652 101.399 109.532 102.42Z" fill="#007ACC"/>
<path d="M89.3406 112.144C87.0027 113.269 84.2095 112.793 82.375 110.958C84.6353 113.219 88.5 111.618 88.5 108.421V19.5788C88.5 16.3823 84.6353 14.7814 82.375 17.0417C84.2095 15.2073 87.0027 14.7319 89.3406 15.8562L109.53 25.5652C111.651 26.5854 113 28.7311 113 31.085V96.9154C113 99.2694 111.651 101.415 109.529 102.435L89.3406 112.144Z" fill="#1F9CF0"/>
</g>
<rect x="62" y="63" width="54" height="42" rx="6" fill="#23A8F2" stroke="white" stroke-width="2.5"/>
<path d="M62 75H116" stroke="white" stroke-width="2.5" stroke-linecap="round"/>
<circle cx="70" cy="69" r="2" fill="white"/>
<circle cx="78" cy="69" r="2" fill="white"/>
<circle cx="86" cy="69" r="2" fill="white"/>
</svg>
